<svg width="234" height="67" viewBox="0 0 234 67" fill="none" xmlns="http://www.w3.org/2000/svg">
<g filter="url(#filter0_dd_58_9)">
<rect x="3" y="3" width="228" height="59" rx="10" fill="#0D606F" shape-rendering="crispEdges"/>
<path fill-rule="evenodd" clip-rule="evenodd" d="M36.5 32.5C36.5 32.1685 36.6317 31.8505 36.8661 31.6161C37.1005 31.3817 37.4185 31.25 37.75 31.25H67.2325L59.365 23.385C59.1303 23.1503 58.9984 22.8319 58.9984 22.5C58.9984 22.1681 59.1303 21.8497 59.365 21.615C59.5997 21.3803 59.9181 21.2484 60.25 21.2484C60.5819 21.2484 60.9003 21.3803 61.135 21.615L71.135 31.615C71.2514 31.7311 71.3438 31.869 71.4068 32.0209C71.4698 32.1728 71.5022 32.3356 71.5022 32.5C71.5022 32.6644 71.4698 32.8272 71.4068 32.9791C71.3438 33.1309 71.2514 33.2689 71.135 33.385L61.135 43.385C60.9003 43.6197 60.5819 43.7516 60.25 43.7516C59.9181 43.7516 59.5997 43.6197 59.365 43.385C59.1303 43.1503 58.9984 42.8319 58.9984 42.5C58.9984 42.1681 59.1303 41.8497 59.365 41.615L67.2325 33.75H37.75C37.4185 33.75 37.1005 33.6183 36.8661 33.3839C36.6317 33.1495 36.5 32.8315 36.5 32.5Z" fill="white"/>
<path d="M86.016 41.5V24.7H98.088V27.148H88.896V31.948H95.232V34.348H88.896V41.5H86.016ZM100.515 41.5V29.476H103.227V41.5H100.515ZM101.883 27.028C101.419 27.028 101.019 26.868 100.683 26.548C100.363 26.212 100.203 25.82 100.203 25.372C100.203 24.908 100.363 24.516 100.683 24.196C101.019 23.86 101.419 23.692 101.883 23.692C102.347 23.692 102.739 23.86 103.059 24.196C103.395 24.516 103.563 24.9 103.563 25.348C103.563 25.812 103.395 26.212 103.059 26.548C102.739 26.868 102.347 27.028 101.883 27.028ZM106.586 41.5V29.476H109.298V31.444C109.762 30.724 110.314 30.188 110.954 29.836C111.594 29.468 112.306 29.284 113.09 29.284C113.922 29.284 114.65 29.468 115.274 29.836C115.898 30.188 116.386 30.684 116.738 31.324C117.106 31.964 117.29 32.716 117.29 33.58V41.5H114.554V34.348C114.554 33.468 114.314 32.772 113.834 32.26C113.354 31.732 112.714 31.468 111.914 31.468C111.37 31.468 110.874 31.596 110.426 31.852C109.994 32.092 109.618 32.452 109.298 32.932V41.5H106.586ZM125.427 41.62C124.419 41.62 123.507 41.348 122.691 40.804C121.875 40.244 121.219 39.508 120.723 38.596C120.243 37.668 120.003 36.636 120.003 35.5C120.003 34.348 120.251 33.316 120.747 32.404C121.243 31.476 121.915 30.74 122.763 30.196C123.627 29.652 124.579 29.38 125.619 29.38C126.307 29.38 126.947 29.516 127.539 29.788C128.147 30.044 128.675 30.428 129.123 30.94V24.292L131.835 23.812V41.5H129.147V39.916C128.715 40.46 128.179 40.884 127.539 41.188C126.899 41.476 126.195 41.62 125.427 41.62ZM126.267 39.34C126.843 39.34 127.379 39.228 127.875 39.004C128.371 38.764 128.787 38.436 129.123 38.02V32.956C128.771 32.54 128.347 32.22 127.851 31.996C127.355 31.772 126.827 31.66 126.267 31.66C125.579 31.66 124.963 31.828 124.419 32.164C123.891 32.484 123.467 32.932 123.147 33.508C122.827 34.084 122.667 34.748 122.667 35.5C122.667 36.22 122.827 36.876 123.147 37.468C123.467 38.044 123.891 38.5 124.419 38.836C124.963 39.172 125.579 39.34 126.267 39.34ZM140.93 41.5V24.7H144.674L149.594 34.9L154.49 24.7H158.234V41.5H155.522V28.348L149.57 40.3L143.594 28.276V41.5H140.93ZM167.418 41.716C166.282 41.716 165.25 41.444 164.322 40.9C163.41 40.356 162.69 39.62 162.162 38.692C161.634 37.748 161.37 36.684 161.37 35.5C161.37 34.316 161.634 33.26 162.162 32.332C162.69 31.388 163.41 30.644 164.322 30.1C165.234 29.556 166.266 29.284 167.418 29.284C168.57 29.284 169.594 29.556 170.49 30.1C171.402 30.644 172.122 31.388 172.65 32.332C173.178 33.26 173.442 34.316 173.442 35.5C173.442 36.684 173.178 37.748 172.65 38.692C172.122 39.62 171.402 40.356 170.49 40.9C169.594 41.444 168.57 41.716 167.418 41.716ZM167.418 39.412C168.074 39.412 168.65 39.244 169.146 38.908C169.658 38.572 170.058 38.108 170.346 37.516C170.634 36.908 170.778 36.236 170.778 35.5C170.778 34.748 170.634 34.084 170.346 33.508C170.058 32.916 169.658 32.452 169.146 32.116C168.65 31.764 168.074 31.588 167.418 31.588C166.762 31.588 166.178 31.764 165.666 32.116C165.154 32.452 164.754 32.916 164.466 33.508C164.178 34.084 164.034 34.748 164.034 35.5C164.034 36.252 164.178 36.924 164.466 37.516C164.754 38.108 165.154 38.572 165.666 38.908C166.178 39.244 166.762 39.412 167.418 39.412ZM176.243 41.5V29.476H178.955V32.068C179.307 31.156 179.763 30.46 180.323 29.98C180.883 29.5 181.531 29.26 182.267 29.26C182.491 29.276 182.691 29.3 182.867 29.332C183.043 29.348 183.235 29.404 183.443 29.5V31.876C183.235 31.78 182.995 31.708 182.723 31.66C182.467 31.612 182.211 31.588 181.955 31.588C181.299 31.588 180.707 31.764 180.179 32.116C179.667 32.468 179.259 32.956 178.955 33.58V41.5H176.243ZM190.694 41.74C189.542 41.74 188.502 41.468 187.574 40.924C186.646 40.364 185.91 39.62 185.366 38.692C184.822 37.748 184.55 36.684 184.55 35.5C184.55 34.316 184.806 33.26 185.318 32.332C185.83 31.404 186.526 30.668 187.406 30.124C188.302 29.564 189.294 29.284 190.382 29.284C191.502 29.284 192.486 29.556 193.334 30.1C194.198 30.644 194.87 31.38 195.35 32.308C195.846 33.236 196.094 34.3 196.094 35.5V36.148H187.214C187.31 36.804 187.518 37.388 187.838 37.9C188.174 38.396 188.598 38.788 189.11 39.076C189.638 39.364 190.206 39.508 190.814 39.508C191.374 39.508 191.902 39.412 192.398 39.22C192.91 39.012 193.334 38.732 193.67 38.38L195.446 39.988C194.71 40.596 193.958 41.044 193.19 41.332C192.438 41.604 191.606 41.74 190.694 41.74ZM187.238 34.468H193.526C193.43 33.892 193.23 33.38 192.926 32.932C192.638 32.484 192.27 32.132 191.822 31.876C191.39 31.62 190.91 31.492 190.382 31.492C189.854 31.492 189.366 31.62 188.918 31.876C188.486 32.116 188.126 32.46 187.838 32.908C187.55 33.356 187.35 33.876 187.238 34.468Z" fill="white"/>
</g>
<defs>
<filter id="filter0_dd_58_9" x="0" y="0" width="234" height="67" filterUnits="userSpaceOnUse" color-interpolation-filters="sRGB">
<feFlood flood-opacity="0" result="BackgroundImageFix"/>
<feColorMatrix in="SourceAlpha" type="matrix" values="0 0 0 0 0 0 0 0 0 0 0 0 0 0 0 0 0 0 127 0" result="hardAlpha"/>
<feOffset dy="2"/>
<feGaussianBlur stdDeviation="1.5"/>
<feComposite in2="hardAlpha" operator="out"/>
<feColorMatrix type="matrix" values="0 0 0 0 0.0509804 0 0 0 0 0.376471 0 0 0 0 0.435294 0 0 0 0.16 0"/>
<feBlend mode="normal" in2="BackgroundImageFix" result="effect1_dropShadow_58_9"/>
<feColorMatrix in="SourceAlpha" type="matrix" values="0 0 0 0 0 0 0 0 0 0 0 0 0 0 0 0 0 0 127 0" result="hardAlpha"/>
<feOffset/>
<feGaussianBlur stdDeviation="1.5"/>
<feComposite in2="hardAlpha" operator="out"/>
<feColorMatrix type="matrix" values="0 0 0 0 0.0509804 0 0 0 0 0.376471 0 0 0 0 0.435294 0 0 0 0.08 0"/>
<feBlend mode="normal" in2="effect1_dropShadow_58_9" result="effect2_dropShadow_58_9"/>
<feBlend mode="normal" in="SourceGraphic" in2="effect2_dropShadow_58_9" result="shape"/>
</filter>
</defs>
</svg>
